<svg width="218" height="259" viewBox="0 0 218 259" fill="none" xmlns="http://www.w3.org/2000/svg">
<g clip-path="url(#clip0)">
<path fill-rule="evenodd" clip-rule="evenodd" d="M31.9254 31.8521C-10.6418 74.3217 -10.6418 143.178 31.9254 185.648L102.823 256.383C106.234 259.786 111.743 259.809 115.177 256.383L186.075 185.648C228.642 143.178 228.642 74.3217 186.075 31.8521C143.508 -10.6174 74.4925 -10.6174 31.9254 31.8521Z" fill="#E64B44"/>
<path d="M130.094 122.809C130.094 131.293 127.785 137.785 123.168 142.285C118.574 146.762 111.953 149 103.305 149H89.0664V97.6016H104.816C112.809 97.6016 119.02 99.8164 123.449 104.246C127.879 108.676 130.094 114.863 130.094 122.809ZM123.766 123.02C123.766 116.316 122.078 111.266 118.703 107.867C115.352 104.469 110.359 102.77 103.727 102.77H95.043V143.832H102.32C109.445 143.832 114.801 142.086 118.387 138.594C121.973 135.078 123.766 129.887 123.766 123.02Z" fill="white"/>
</g>
<defs>
<clipPath id="clip0">
<rect width="218" height="259" fill="white"/>
</clipPath>
</defs>
</svg>
